<svg id="blue_copy" style="enable-background:new 0 0 100 100; margin-left: 1px" version="1.1" viewBox="0 0 100 100" xml:space="preserve" xmlns="http://www.w3.org/2000/svg" xmlns:xlink="http://www.w3.org/1999/xlink"><g id="Layer_7_copy">
<path fill='#fff' d="M39.806,72.858h-8.915c-2.176,0-3.94-1.764-3.94-3.94V31.119c0-2.176,1.764-3.94,3.94-3.94h8.915   c2.176,0,3.94,1.764,3.94,3.94v37.799C43.746,71.094,41.982,72.858,39.806,72.858z"/>
<path fill='#fff' d="M68.109,72.821h-8.915c-2.176,0-3.94-1.764-3.94-3.94V31.082c0-2.176,1.764-3.94,3.94-3.94h8.915   c2.176,0,3.94,1.764,3.94,3.94v37.799C72.049,71.057,70.285,72.821,68.109,72.821z"/>
</g></svg>